PathFileType	4	(X/Y/Z)	C:/Users/beibeiliu/ov580/test_trc\sequence.32_training_dense_left.trc
DataRate	CameraRate	NumFrames	NumMarkers	Units	OrigDataRate	OrigDataStartFrame	OrigNumFrames
120	120	13	19	mm	120	39	310
Frame#	Time	ThumbCMC			ThumbMCP			ThumbIP			ThumbTip			IndexMCP			IndexPIP			IndexTip			MiddleMCP			MiddlePIP			MiddleTip			RingMCP			RingPIP			RingTip			PinkyMCP			PinkyPIP			PinkyTip			BackHand1			BackHand2			BackHand3	
		X0	Y0	Z0	X1	Y1	Z1	X2	Y2	Z2	X3	Y3	Z3	X4	Y4	Z4	X5	Y5	Z5	X6	Y6	Z6	X7	Y7	Z7	X8	Y8	Z8	X9	Y9	Z9	X10	Y10	Z10	X11	Y11	Z11	X12	Y12	Z12	X13	Y13	Z13	X14	Y14	Z14	X15	Y15	Z15	X16	Y16	Z16	X17	Y17	Z17	X18	Y18	Z18	
38	0.316667	-163.44	-0.909931	18.9842	-153.325	-17.0557	-7.31117	-155.133	-19.6854	-30.7768	-164.148	-22.2369	-49.1983	-168.921	12.8743	-43.4811	-177.12	-15.0806	-51.8773	-186.963	-23.9613	-25.5519	-183.094	24.2902	-47.3	-189.71	13.0483	-71.7477	-198.656	-4.15252	-93.182	-204.253	31.0677	-42.1287	-208.359	24.0351	-65.0904	-212.886	10.5648	-83.2914	-225.668	33.8414	-25.4066	-234.682	37.3487	-39.5922	-242.82	46.2929	-57.8683	-201.747	33.9289	8.34106	-197.067	31.0618	31.8442	-172.166	28.3975	16.766	
39	0.325	-163.012	-2.10765	19.4973	-156.156	-17.4152	-3.53125	-156.018	-22.7002	-31.1051	-165.159	-26.2245	-54.0281	-169.713	6.35365	-47.4716	-177.403	-16.1115	-53.4831	-184.988	-27.8809	-23.8071	-186.743	23.11	-51.4791	-189.278	11.7376	-74.1976	-196.23	0.819544	-92.5608	-202.267	30.0637	-41.0655	-207.962	27.0632	-65.252	-213.643	21.9615	-87.3408	-226.673	32.6076	-26.5312	-234.115	36.0725	-41.014	-242.19	43.7546	-57.2676	-196.749	33.6856	7.09684	-198.779	30.4792	30.9516	-170.979	25.1672	17.6638	
40	0.333333	-157.047	-6.38994	18.5796	-153.569	-20.012	-5.64201	-153.744	-26.1774	-29.2246	-162.489	-31.8847	-51.1819	-169.652	4.04717	-48.0428	-177.331	-20.9159	-51.2101	-186.579	-29.8927	-25.5317	-184.706	21.2633	-50.7484	-186.592	13.3076	-73.1789	-188.786	0.291713	-96.1798	-204.016	30.0787	-40.4729	-205.241	30.535	-62.805	-207.698	28.2535	-87.0757	-222.469	29.9079	-23.9922	-233.686	34.0805	-38.2062	-237.958	44.5321	-53.4991	-199.972	32.8908	3.3004	-196.763	29.7681	30.755	-172.521	25.9456	16.3639	
41	0.341667	-156.059	-7.00495	20.1426	-154.42	-23.3531	-0.813162	-154.027	-31.3036	-29.6525	-165.047	-33.9552	-48.7744	-165.947	1.44955	-44.8352	-175.859	-22.3913	-53.0696	-186.492	-32.0904	-26.7868	-183.459	20.003	-51.6085	-183.895	13.0301	-74.1896	-191.398	4.31007	-97.4901	-203.57	29.5612	-38.6831	-201.819	30.1884	-61.4988	-203.742	31.3285	-83.4507	-225.587	29.314	-23.2679	-232.109	33.8485	-38.8375	-240.53	45.9648	-52.3817	-196.803	29.8921	4.32377	-193.106	27.7009	29.8249	-169.556	22.5539	17.1361	
42	0.35	-158.282	-8.33679	18.1524	-150.544	-27.4975	-1.69928	-158.08	-31.9784	-27.1847	-166.118	-38.1533	-44.0487	-162.702	-1.80423	-44.6439	-176.52	-28.0134	-50.2701	-184.064	-35.2934	-21.3533	-181.749	16.836	-52.5453	-184.462	11.9519	-74.7485	-185.619	2.2167	-100.499	-201.928	26.7688	-38.4005	-205.21	31.0438	-62.2008	-203.148	33.0445	-82.053	-223.727	27.4535	-22.846	-229.416	33.4892	-38.4146	-234.476	44.9392	-50.2101	-194.905	27.9272	6.45494	-193.639	27.0984	30.7911	-169.874	21.1733	16.6538	
43	0.358333	-155.689	-9.86512	20.5395	-153.276	-27.0725	-1.21809	-155.17	-36.2388	-21.6567	-166.037	-43.4046	-45.3327	-166.911	-3.66465	-46.0013	-173.092	-29.4922	-52.4639	-184.057	-39.751	-25.9665	-181.858	15.9813	-48.2886	-179.596	9.76271	-75.7187	-185.449	3.87582	-97.1042	-198.406	25.9344	-41.0623	-200.508	29.4892	-58.5619	-203.622	34.4642	-80.6084	-218.933	27.1995	-25.3285	-226.887	32.5561	-36.5764	-230.741	43.1773	-46.383	-191.79	27.0163	3.09865	-194.48	28.8064	30.5506	-166.622	19.6019	16.9215	
44	0.366667	-158.208	-9.57392	23.1607	-150.552	-32.1242	0.359121	-153.094	-40.7022	-25.5748	-165.634	-44.2855	-41.8831	-162.316	-6.2636	-43.2605	-173.294	-30.0436	-52.8303	-184.33	-40.7157	-24.1874	-176.583	13.254	-46.4926	-179.702	9.73209	-70.6339	-181.687	3.48982	-97.1069	-197.392	25.3139	-40.902	-198.168	28.5461	-57.4361	-201.031	33.7948	-79.8165	-215.895	24.2178	-20.8744	-226.042	33.0516	-37.3361	-227.608	45.4064	-49.8726	-190.912	25.182	5.31802	-187.511	26.3062	29.4713	-163.231	19.2276	13.542	
45	0.375	-155.65	-12.3562	22.1134	-151.327	-33.3016	-0.491047	-155.695	-41.4248	-18.9802	-162.419	-49.1657	-37.2252	-160.109	-8.62367	-43.3314	-171.342	-33.8183	-50.2832	-181.848	-43.511	-24.768	-174.55	11.525	-49.3643	-179.313	7.69642	-74.5846	-179.835	3.20744	-95.8048	-190.919	22.5703	-38.0349	-194.309	26.2166	-56.9225	-196.627	32.9455	-81.2883	-216.042	26.0154	-24.0214	-223.824	31.332	-34.9433	-224.637	42.7263	-45.0666	-192.393	25.8868	6.23378	-185.651	27.47	31.9512	-163.626	17.5418	16.4245	
46	0.383333	-152.537	-13.724	20.9733	-148.967	-36.687	2.75357	-153.817	-44.025	-18.1099	-166.014	-49.0043	-38.7473	-157.503	-9.5882	-41.805	-170.012	-32.429	-52.8308	-184.546	-43.6474	-27.3636	-170.376	10.0499	-48.3759	-173	5.77335	-74.4386	-177.55	1.95063	-95.1132	-194.084	23.2514	-36.1026	-190.703	25.5738	-57.3461	-195.307	31.74	-76.637	-214.083	25.9805	-24.1188	-217.066	28.6753	-33.7716	-222.489	40.4185	-45.4559	-186.366	24.0467	4.40948	-186.236	26.143	32.0054	-161.23	15.3994	16.3067	
47	0.391667	-151.756	-16.7724	23.9022	-152.547	-35.4769	3.26913	-151.558	-48.2585	-19.9162	-161.592	-55.4881	-37.4841	-156.303	-12.0652	-43.5744	-165.986	-33.4873	-51.739	-179.923	-48.2937	-27.2414	-170.104	9.97104	-44.3668	-173.083	6.96766	-70.805	-173.4	0.905842	-95.0669	-190.427	22.4083	-39.1152	-188.59	24.3459	-56.6589	-191.107	31.904	-76.8119	-209.392	23.0509	-21.5471	-217.372	29.9209	-35.2063	-220.341	42.9428	-47.291	-186.63	21.8288	8.23235	-181.565	25.8838	29.6044	-158.92	15.3124	17.3001	
48	0.4	-152.403	-16.6121	27.6493	-152.162	-37.022	5.75742	-150.747	-49.9857	-17.6102	-164.156	-52.8344	-36.7299	-154.177	-11.4627	-41.2269	-167.837	-33.8991	-52.0161	-180.73	-48.3396	-28.9508	-169.883	9.35547	-44.0972	-167.426	3.64832	-70.6654	-169.543	-1.55963	-95.7232	-185.617	18.7181	-34.752	-189.468	26.4599	-57.5444	-184.552	29.6467	-79.2646	-210.542	25.4298	-22.275	-214.67	32.2635	-36.9732	-216.607	41.9211	-44.7004	-185.705	23.4423	8.77517	-182.652	24.9769	29.3036	-161.641	16.0959	19.3729	
49	0.408333	-149.681	-20.1394	25.3093	-151.532	-37.6884	6.9467	-152.3	-48.8912	-14.8483	-161.682	-56.0592	-36.3564	-154.035	-14.4381	-41.5745	-166.696	-38.0579	-48.7646	-178.545	-50.2745	-27.3134	-166.553	7.71447	-44.7998	-168.357	3.14042	-68.4274	-172.724	-0.135803	-95.6704	-185.271	20.5585	-35.4125	-184.267	24.143	-57.6884	-185.119	30.2415	-75.4326	-203.598	21.175	-18.135	-209.757	29.1232	-34.8219	-215.646	45.3937	-43.1989	-182.103	23.303	6.53164	-179.499	22.3733	32.0761	-158.532	13.4571	19.0302	
50	0.416667	-151.54	-20.3931	31.4134	-150.129	-40.2492	7.49854	-152.828	-50.224	-12.2965	-159.547	-60.0126	-33.9734	-150.994	-16.0052	-35.3165	-168.687	-37.8829	-48.7938	-178.872	-52.421	-27.3704	-166.304	5.84538	-43.1071	-167.057	2.0869	-68.067	-170.881	-1.19489	-90.8362	-182.637	18.2395	-32.7586	-184.631	24.118	-57.2376	-182.232	28.9059	-77.4886	-205.356	23.5618	-20.7637	-211.178	30.591	-31.0943	-210.5	42.2478	-42.2396	-181.271	21.9025	9.48257	-180.521	25.3941	31.7792	-157.877	13.1895	19.616	
